<svg xmlns="http://www.w3.org/2000/svg" xmlns:xlink="http://www.w3.org/1999/xlink" width="16.667" height="23.333" viewBox="0 0 16.667 23.333"><defs><style>.a{fill:#b30000;}.b{fill:url(#a);}.c{fill:#fff;}</style><linearGradient id="a" x1="0.146" y1="0.854" x2="0.854" y2="0.146" gradientUnits="objectBoundingBox"><stop offset="0" stop-color="#cdcad4"/><stop offset="1" stop-color="#eeedf1"/></linearGradient></defs><g transform="translate(-219.667 -928.333)"><g transform="translate(143.667 924.333)"><g transform="translate(76 4)"><path class="a" d="M88,23.778a7.778,7.778,0,0,1,15.556,0c0,6.3-7.778,12.593-7.778,12.593S88,30.074,88,23.778Z" transform="translate(-87.444 -15.444)"/><ellipse class="b" cx="6" cy="5.5" rx="6" ry="5.5" transform="translate(2.333 2.667)"/><path class="a" d="M91.394,17.2a11.078,11.078,0,0,0,1.273-4.87,8.333,8.333,0,1,0-16.667,0,11.078,11.078,0,0,0,1.273,4.87,21.822,21.822,0,0,0,2.743,4.141c.5.609,1,1.165,1.468,1.656-1.13.437-1.78,1.125-1.78,1.926,0,.725.539,1.37,1.519,1.815a8.466,8.466,0,0,0,6.221,0c.979-.445,1.519-1.09,1.519-1.815,0-.8-.65-1.488-1.78-1.926.467-.491.967-1.047,1.468-1.656A21.821,21.821,0,0,0,91.394,17.2Zm-3.542,7.723c0,.252-.332.56-.868.8a7.379,7.379,0,0,1-5.3,0c-.535-.243-.868-.551-.868-.8,0-.312.538-.764,1.54-1.044.924.9,1.582,1.438,1.629,1.475a.556.556,0,0,0,.7,0c.047-.038.705-.574,1.629-1.475C87.314,24.162,87.852,24.614,87.852,24.926ZM84.333,24.2a31.34,31.34,0,0,1-3.473-3.575c-1.71-2.08-3.749-5.206-3.749-8.288a7.222,7.222,0,1,1,14.444,0c0,3.082-2.039,6.208-3.749,8.288A31.335,31.335,0,0,1,84.333,24.2Z" transform="translate(-76 -4)"/><path class="c" d="M130.111,52a6.111,6.111,0,1,0,6.111,6.111A6.118,6.118,0,0,0,130.111,52Zm0,11.111a5,5,0,1,1,5-5A5,5,0,0,1,130.111,63.111Z" transform="translate(-121.778 -49.778)"/></g></g><path class="a" d="M4.419.533H3.209V.4a.4.4,0,0,0-.4-.4H1.742a.4.4,0,0,0-.4.4V.533H.134A.134.134,0,0,0,0,.667V3.6A.4.4,0,0,0,.4,4H4.151a.4.4,0,0,0,.4-.4V.669h0A.129.129,0,0,0,4.419.533ZM1.609.4A.134.134,0,0,1,1.742.267H2.809A.134.134,0,0,1,2.942.4V.533H1.609ZM4.233.8,3.819,2.042a.133.133,0,0,1-.126.091h-.75V2a.133.133,0,0,0-.133-.133H1.742A.133.133,0,0,0,1.609,2v.133H.859a.133.133,0,0,1-.126-.091L.319.8ZM2.676,2.133V2.4h-.8V2.133ZM4.285,3.6a.134.134,0,0,1-.133.133H.4A.134.134,0,0,1,.267,3.6V1.488l.213.638A.4.4,0,0,0,.859,2.4h.75v.133a.133.133,0,0,0,.133.133H2.809a.133.133,0,0,0,.133-.133V2.4h.75a.4.4,0,0,0,.379-.274l.213-.638Zm0,0" transform="translate(225.724 935)"/></g></svg>