<svg xmlns="http://www.w3.org/2000/svg" width="13.576" height="21.721" viewBox="0 0 13.576 21.721"><defs><style>.a{fill:#0a1c53;}</style></defs><g transform="translate(-96)"><path class="a" d="M107.624,21.721H97.951A1.954,1.954,0,0,1,96,19.77V1.952A1.954,1.954,0,0,1,97.951,0h9.673a1.954,1.954,0,0,1,1.952,1.952V19.77A1.954,1.954,0,0,1,107.624,21.721ZM97.951,1.358a.6.6,0,0,0-.594.594V19.77a.6.6,0,0,0,.594.594h9.673a.6.6,0,0,0,.594-.594V1.952a.6.6,0,0,0-.594-.594Z"/><path class="a" d="M211.394,57.358h-2.715a.679.679,0,1,1,0-1.358h2.715a.679.679,0,1,1,0,1.358Z" transform="translate(-107.249 -53.624)"/><path class="a" d="M210.316,56.762h-1.853a.388.388,0,1,1,0-.762h1.853a.388.388,0,1,1,0,.762Z" transform="translate(-106.249 -37.029)"/></g></svg>