<svg xmlns="http://www.w3.org/2000/svg" width="14.2" height="13.26" viewBox="0 0 14.2 13.26"><defs><style>.a{fill:#5db224;stroke:#5db224;stroke-width:0.2px;}</style></defs><g transform="translate(0.1 -17.088)"><g transform="translate(0 17.188)"><path class="a" d="M13.316,28.881h-.174V25.495a.205.205,0,0,0-.41,0v3.387H8.382V23.306h4.183a.168.168,0,0,1,.168.168v1.055a.205.205,0,1,0,.41,0V23.474a.578.578,0,0,0-.578-.578H8.382V19.169a.581.581,0,0,0-.529-.576v-.411a.581.581,0,0,0-.533-.576L2.009,17.19a.578.578,0,0,0-.623.576v.328a.578.578,0,0,0-.529.576V28.881H.684a.684.684,0,0,0,0,1.367H13.316a.684.684,0,1,0,0-1.367ZM1.8,17.766a.167.167,0,0,1,.181-.167l5.311.416a.168.168,0,0,1,.154.167v.379L1.8,18.119v-.353Zm-.529.9a.167.167,0,0,1,.181-.167l6.369.5a.168.168,0,0,1,.155.167v9.712H7.4V25.945a.339.339,0,0,0-.338-.338H5.155a.339.339,0,0,0-.338.338v1.33a.205.205,0,0,0,.41,0V26.017H6.989v2.864H5.227v-.647a.205.205,0,1,0-.41,0v.647H1.267ZM13.316,29.838H.684a.273.273,0,1,1,0-.547H13.316a.273.273,0,1,1,0,.547Z" transform="translate(0 -17.188)"/><path class="a" d="M63.317,115.048h.83a.354.354,0,0,0,.354-.354v-.639a.354.354,0,0,0-.354-.354h-.83a.354.354,0,0,0-.354.354v.639A.354.354,0,0,0,63.317,115.048Zm.056-.936h.718v.526h-.718Z" transform="translate(-61.241 -111.063)"/><path class="a" d="M139.011,115.048h.83a.354.354,0,0,0,.354-.354v-.639a.354.354,0,0,0-.354-.354h-.83a.354.354,0,0,0-.354.354v.639A.354.354,0,0,0,139.011,115.048Zm.056-.936h.718v.526h-.718Z" transform="translate(-134.866 -111.063)"/><path class="a" d="M214.7,115.048h.83a.354.354,0,0,0,.354-.354v-.639a.354.354,0,0,0-.354-.354h-.83a.354.354,0,0,0-.354.354v.639a.354.354,0,0,0,.354.354Zm.056-.936h.718v.526h-.718Z" transform="translate(-208.489 -111.063)"/><path class="a" d="M63.317,182.484h.83a.354.354,0,0,0,.354-.354v-.639a.354.354,0,0,0-.354-.354h-.83a.354.354,0,0,0-.354.354v.639A.354.354,0,0,0,63.317,182.484Zm.056-.936h.718v.526h-.718Z" transform="translate(-61.241 -176.655)"/><path class="a" d="M139.011,182.484h.83a.354.354,0,0,0,.354-.354v-.639a.354.354,0,0,0-.354-.354h-.83a.354.354,0,0,0-.354.354v.639A.354.354,0,0,0,139.011,182.484Zm.056-.936h.718v.526h-.718Z" transform="translate(-134.866 -176.655)"/><path class="a" d="M214.7,182.484h.83a.354.354,0,0,0,.354-.354v-.639a.354.354,0,0,0-.354-.354h-.83a.354.354,0,0,0-.354.354v.639a.354.354,0,0,0,.354.354Zm.056-.936h.718v.526h-.718Z" transform="translate(-208.489 -176.655)"/><path class="a" d="M63.317,249.921h.83a.354.354,0,0,0,.354-.354v-.639a.354.354,0,0,0-.354-.354h-.83a.354.354,0,0,0-.354.354v.639A.354.354,0,0,0,63.317,249.921Zm.056-.936h.718v.526h-.718Z" transform="translate(-61.241 -242.248)"/><path class="a" d="M65.194,325.052H63.357a.394.394,0,0,0-.394.394V326a.394.394,0,0,0,.394.394h1.837a.394.394,0,0,0,.394-.394v-.559A.394.394,0,0,0,65.194,325.052Zm-.016.936h-1.8v-.526h1.8Z" transform="translate(-61.241 -316.634)"/><path class="a" d="M139.011,249.921h.83a.354.354,0,0,0,.354-.354v-.639a.354.354,0,0,0-.354-.354h-.83a.354.354,0,0,0-.354.354v.639A.354.354,0,0,0,139.011,249.921Zm.056-.936h.718v.526h-.718Z" transform="translate(-134.866 -242.248)"/><path class="a" d="M214.7,249.921h.83a.354.354,0,0,0,.354-.354v-.639a.354.354,0,0,0-.354-.354h-.83a.354.354,0,0,0-.354.354v.639a.354.354,0,0,0,.354.354Zm.056-.936h.718v.526h-.718Z" transform="translate(-208.489 -242.248)"/><path class="a" d="M323.943,277.877a.378.378,0,0,0-.377-.377h-.837a.378.378,0,0,0-.377.377v.664a.378.378,0,0,0,.377.377h.837a.378.378,0,0,0,.377-.377Zm-.41.631h-.772v-.6h.772Z" transform="translate(-313.537 -270.382)"/><path class="a" d="M323.566,346.717h-.837a.378.378,0,0,0-.377.377v.664a.378.378,0,0,0,.377.377h.837a.378.378,0,0,0,.377-.377v-.664A.378.378,0,0,0,323.566,346.717Zm-.033,1.009h-.772v-.6h.772Z" transform="translate(-313.537 -337.706)"/><path class="a" d="M393.7,277.877a.378.378,0,0,0-.377-.377h-.837a.378.378,0,0,0-.377.377v.664a.378.378,0,0,0,.377.377h.837a.378.378,0,0,0,.377-.377Zm-.41.631h-.772v-.6h.772Z" transform="translate(-381.39 -270.382)"/><path class="a" d="M393.327,346.717h-.837a.378.378,0,0,0-.377.377v.664a.378.378,0,0,0,.377.377h.837a.378.378,0,0,0,.377-.377v-.664A.378.378,0,0,0,393.327,346.717Zm-.033,1.009h-.772v-.6h.772Z" transform="translate(-381.39 -337.706)"/></g></g></svg>