<svg xmlns="http://www.w3.org/2000/svg" width="14" height="12.305" viewBox="0 0 14 12.305"><defs><style>.a{fill:#f67537;}</style></defs><path class="a" d="M13.593,1.641H9.871V1.23A1.232,1.232,0,0,0,8.641,0H5.36a1.232,1.232,0,0,0-1.23,1.23v.41H.41a.411.411,0,0,0-.41.41v9.023a1.232,1.232,0,0,0,1.23,1.23H12.77A1.232,1.232,0,0,0,14,11.074V2.058a.4.4,0,0,0-.408-.417ZM4.949,1.23A.411.411,0,0,1,5.36.82H8.641a.411.411,0,0,1,.41.41v.41h-4.1Zm8.072,1.23L11.747,6.282a.409.409,0,0,1-.389.28H9.051v-.41a.41.41,0,0,0-.41-.41H5.36a.41.41,0,0,0-.41.41v.41H2.642a.409.409,0,0,1-.389-.28L.979,2.461Zm-4.79,4.1v.82H5.77v-.82Zm4.949,4.512a.411.411,0,0,1-.41.41H1.231a.411.411,0,0,1-.41-.41v-6.5l.654,1.963a1.229,1.229,0,0,0,1.167.841H4.949v.41a.41.41,0,0,0,.41.41H8.641a.41.41,0,0,0,.41-.41v-.41h2.307a1.229,1.229,0,0,0,1.167-.841l.654-1.963Zm0,0" transform="translate(0)"/></svg>