<svg xmlns="http://www.w3.org/2000/svg" width="12" height="12" viewBox="0 0 12 12"><defs><style>.a{fill:#a440c2;}</style></defs><path class="a" d="M6.352,3.188A3.176,3.176,0,1,0,2.836,6.332V8.461H1.781a.352.352,0,1,0,0,.7H2.836v1.055a.352.352,0,0,0,.7,0V9.164H4.594a.352.352,0,0,0,0-.7H3.539V6.332A3.168,3.168,0,0,0,6.352,3.187ZM.7,3.188A2.473,2.473,0,1,1,3.188,5.648,2.487,2.487,0,0,1,.7,3.188Z"/><path class="a" d="M244.516,65.238V62.2l.806.806a.352.352,0,1,0,.5-.5L244.413,61.1a.352.352,0,0,0-.5,0l-1.406,1.406a.352.352,0,0,0,.5.5l.806-.806v3.038a3.176,3.176,0,0,0,.352,6.332,3.175,3.175,0,0,0,.352-6.332Zm-.352,5.629a2.473,2.473,0,1,1,2.484-2.484A2.476,2.476,0,0,1,244.164,70.867Z" transform="translate(-235.352 -59.57)"/></svg>