<svg xmlns="http://www.w3.org/2000/svg" width="11.875" height="11.453" viewBox="0 0 11.875 11.453"><defs><style>.a{fill:#2a70b5;}</style></defs><g transform="translate(0 -9.1)"><g transform="translate(0 9.1)"><g transform="translate(0 0)"><path class="a" d="M11.42,11.314A5.161,5.161,0,0,0,9.173,9.72a8.792,8.792,0,0,0-6.463-.01A5.159,5.159,0,0,0,.458,11.3,2.037,2.037,0,0,0,.092,13.17a.981.981,0,0,0,.941.678H2.518a.991.991,0,0,0,.762-.355.975.975,0,0,0,.212-.8c0-.008,0-.017-.005-.025l-.078-.3a6.052,6.052,0,0,1,2.53-.6,6.213,6.213,0,0,1,2.529.61l-.079.3c0,.009,0,.017-.006.026a.975.975,0,0,0,.21.8.991.991,0,0,0,.763.358h1.485a.981.981,0,0,0,.941-.675A2.039,2.039,0,0,0,11.42,11.314Zm-.313,1.657a.279.279,0,0,1-.267.185H9.357a.284.284,0,0,1-.219-.1.265.265,0,0,1-.06-.21l.148-.561a.354.354,0,0,0-.164-.4,6.86,6.86,0,0,0-3.119-.828H5.914a6.726,6.726,0,0,0-3.1.816.354.354,0,0,0-.164.394l.145.562a.266.266,0,0,1-.06.21.284.284,0,0,1-.219.1H1.034a.278.278,0,0,1-.266-.185,1.34,1.34,0,0,1,.263-1.238c.808-1.106,2.868-1.907,4.9-1.907h.011c2.035,0,4.1.811,4.9,1.922A1.342,1.342,0,0,1,11.107,12.971Z" transform="translate(0 -9.1)"/></g></g><g transform="translate(1.239 13.27)"><path class="a" d="M61.482,191l-1.106-1.161a.354.354,0,0,0-.257-.11H59.4v-.483a.354.354,0,1,0-.709,0v.483H57.561v-.483a.354.354,0,1,0-.709,0v.483h-.715a.354.354,0,0,0-.257.11L54.775,191a4.855,4.855,0,0,0-1.345,3.362v1.458a.354.354,0,0,0,.354.354h8.688a.354.354,0,0,0,.354-.354v-1.458A4.854,4.854,0,0,0,61.482,191Zm-7.343,4.466v-1.1a4.149,4.149,0,0,1,1.149-2.873l1-1.051h3.678l1,1.051a4.149,4.149,0,0,1,1.149,2.873v1.1Z" transform="translate(-53.43 -188.89)"/></g><g transform="translate(4.083 15.549)"><g transform="translate(0 0)"><path class="a" d="M177.9,287.135a1.855,1.855,0,1,0,1.855,1.855A1.857,1.857,0,0,0,177.9,287.135Zm0,3a1.146,1.146,0,1,1,1.146-1.146A1.147,1.147,0,0,1,177.9,290.135Z" transform="translate(-176.046 -287.135)"/></g></g></g></svg>