<svg xmlns="http://www.w3.org/2000/svg" width="10.938" height="10.99" viewBox="0 0 10.938 10.99"><defs><style>.a{fill:#00b0a6;fill-rule:evenodd;}</style></defs><path class="a" d="M9.594,1.6A5.447,5.447,0,0,0,1.022,8.168L.25,10.99l2.887-.757a5.44,5.44,0,0,0,2.6.663h0A5.448,5.448,0,0,0,9.594,1.6ZM5.742,9.976h0a4.521,4.521,0,0,1-2.3-.631l-.165-.1L1.557,9.7l.457-1.67-.108-.171A4.526,4.526,0,1,1,5.742,9.976Zm2.483-3.39c-.136-.068-.805-.4-.93-.443s-.215-.068-.306.068-.351.443-.431.533-.159.1-.295.034A3.717,3.717,0,0,1,5.168,6.1a4.1,4.1,0,0,1-.757-.943c-.079-.136,0-.2.06-.278a3.849,3.849,0,0,0,.34-.465A.25.25,0,0,0,4.8,4.179c-.034-.068-.306-.738-.419-1.01s-.223-.229-.306-.234-.17,0-.261,0a.5.5,0,0,0-.363.17,1.526,1.526,0,0,0-.476,1.135A2.647,2.647,0,0,0,3.53,5.644,6.066,6.066,0,0,0,5.855,7.7a7.789,7.789,0,0,0,.776.287,1.865,1.865,0,0,0,.857.054,1.4,1.4,0,0,0,.919-.647,1.137,1.137,0,0,0,.079-.647c-.034-.057-.125-.091-.261-.159Zm0,0" transform="translate(-0.25)"/></svg>